M48
INCH,TZ
T1C0.0350
T2C0.0394
%
G90
G05
T1
X31496Y-15748
X31496Y-16748
X31496Y-17748
X31496Y-18748
X31496Y-19748
X31496Y-20748
X31496Y-21748
X31496Y-22748
X31496Y-23748
X31496Y-24748
X31496Y-25748
X31496Y-26748
X31496Y-27748
X31496Y-28748
X31496Y-29748
X31496Y-30748
X31496Y-31748
X31496Y-32748
X31496Y-33748
X31496Y-34748
X37496Y-15748
X37496Y-16748
X37496Y-17748
X37496Y-18748
X37496Y-19748
X37496Y-20748
X37496Y-21748
X37496Y-22748
X37496Y-23748
X37496Y-24748
X37496Y-25748
X37496Y-26748
X37496Y-27748
X37496Y-28748
X37496Y-29748
X37496Y-30748
X37496Y-31748
X37496Y-32748
X37496Y-33748
X37496Y-34748
T2
X39370Y-15748
X39370Y-16748
X39370Y-17748
X39370Y-18748
X39370Y-19748
X39370Y-20748
X39370Y-21748
X39370Y-22748
X39370Y-23748
X39370Y-24748
X39370Y-25748
X39370Y-26748
X39370Y-27748
X39370Y-28748
X39370Y-29748
X39370Y-30748
X39370Y-31748
X39370Y-32748
X39370Y-33748
X39370Y-34748
X45370Y-15748
X45370Y-16748
X45370Y-17748
X45370Y-18748
X45370Y-19748
X45370Y-20748
X45370Y-21748
X45370Y-22748
X45370Y-23748
X45370Y-24748
X45370Y-25748
X45370Y-26748
X45370Y-27748
X45370Y-28748
X45370Y-29748
X45370Y-30748
X45370Y-31748
X45370Y-32748
X45370Y-33748
X45370Y-34748
T0
M30
