G04 #@! TF.GenerationSoftware,KiCad,Pcbnew,(5.1.10)-1*
G04 #@! TF.CreationDate,2022-12-28T22:20:52-05:00*
G04 #@! TF.ProjectId,CocoDvRelocator,436f636f-4476-4526-956c-6f6361746f72,rev?*
G04 #@! TF.SameCoordinates,Original*
G04 #@! TF.FileFunction,Copper,L2,Bot*
G04 #@! TF.FilePolarity,Positive*
%FSLAX46Y46*%
G04 Gerber Fmt 4.6, Leading zero omitted, Abs format (unit mm)*
G04 Created by KiCad (PCBNEW (5.1.10)-1) date 2022-12-28 22:20:52*
%MOMM*%
%LPD*%
G01*
G04 APERTURE LIST*
G04 #@! TA.AperFunction,ComponentPad*
%ADD10C,1.397000*%
G04 #@! TD*
G04 #@! TA.AperFunction,ComponentPad*
%ADD11R,1.397000X1.397000*%
G04 #@! TD*
G04 #@! TA.AperFunction,ComponentPad*
%ADD12O,1.700000X1.700000*%
G04 #@! TD*
G04 #@! TA.AperFunction,ComponentPad*
%ADD13R,1.700000X1.700000*%
G04 #@! TD*
G04 #@! TA.AperFunction,Conductor*
%ADD14C,0.250000*%
G04 #@! TD*
G04 APERTURE END LIST*
D10*
X95240000Y-40000000D03*
X95240000Y-42540000D03*
X95240000Y-45080000D03*
X95240000Y-47620000D03*
X95240000Y-50160000D03*
X95240000Y-52700000D03*
X95240000Y-55240000D03*
X95240000Y-57780000D03*
X95240000Y-60320000D03*
X95240000Y-62860000D03*
X95240000Y-65400000D03*
X95240000Y-67940000D03*
X95240000Y-70480000D03*
X95240000Y-73020000D03*
X95240000Y-75560000D03*
X95240000Y-78100000D03*
X95240000Y-80640000D03*
X95240000Y-83180000D03*
X95240000Y-85720000D03*
X95240000Y-88260000D03*
X80000000Y-88260000D03*
X80000000Y-85720000D03*
X80000000Y-83180000D03*
X80000000Y-80640000D03*
X80000000Y-78100000D03*
X80000000Y-75560000D03*
X80000000Y-73020000D03*
X80000000Y-70480000D03*
X80000000Y-67940000D03*
X80000000Y-65400000D03*
X80000000Y-62860000D03*
X80000000Y-60320000D03*
X80000000Y-57780000D03*
X80000000Y-55240000D03*
X80000000Y-52700000D03*
X80000000Y-50160000D03*
X80000000Y-47620000D03*
X80000000Y-45080000D03*
X80000000Y-42540000D03*
D11*
X80000000Y-40000000D03*
D12*
X115240000Y-88260000D03*
X115240000Y-85720000D03*
X115240000Y-83180000D03*
X115240000Y-80640000D03*
X115240000Y-78100000D03*
X115240000Y-75560000D03*
X115240000Y-73020000D03*
X115240000Y-70480000D03*
X115240000Y-67940000D03*
X115240000Y-65400000D03*
X115240000Y-62860000D03*
X115240000Y-60320000D03*
X115240000Y-57780000D03*
X115240000Y-55240000D03*
X115240000Y-52700000D03*
X115240000Y-50160000D03*
X115240000Y-47620000D03*
X115240000Y-45080000D03*
X115240000Y-42540000D03*
D13*
X115240000Y-40000000D03*
D12*
X100000000Y-88260000D03*
X100000000Y-85720000D03*
X100000000Y-83180000D03*
X100000000Y-80640000D03*
X100000000Y-78100000D03*
X100000000Y-75560000D03*
X100000000Y-73020000D03*
X100000000Y-70480000D03*
X100000000Y-67940000D03*
X100000000Y-65400000D03*
X100000000Y-62860000D03*
X100000000Y-60320000D03*
X100000000Y-57780000D03*
X100000000Y-55240000D03*
X100000000Y-52700000D03*
X100000000Y-50160000D03*
X100000000Y-47620000D03*
X100000000Y-45080000D03*
X100000000Y-42540000D03*
D13*
X100000000Y-40000000D03*
D14*
X113875001Y-41364999D02*
X115240000Y-40000000D01*
X96604999Y-41364999D02*
X113875001Y-41364999D01*
X95240000Y-40000000D02*
X96604999Y-41364999D01*
X96415001Y-43715001D02*
X114064999Y-43715001D01*
X114064999Y-43715001D02*
X115240000Y-42540000D01*
X95240000Y-42540000D02*
X96415001Y-43715001D01*
X113875001Y-46444999D02*
X115240000Y-45080000D01*
X96604999Y-46444999D02*
X113875001Y-46444999D01*
X95240000Y-45080000D02*
X96604999Y-46444999D01*
X96415001Y-48795001D02*
X114064999Y-48795001D01*
X114064999Y-48795001D02*
X115240000Y-47620000D01*
X95240000Y-47620000D02*
X96415001Y-48795001D01*
X114064999Y-51335001D02*
X115240000Y-50160000D01*
X96415001Y-51335001D02*
X114064999Y-51335001D01*
X95240000Y-50160000D02*
X96415001Y-51335001D01*
X114064999Y-53875001D02*
X115240000Y-52700000D01*
X96415001Y-53875001D02*
X114064999Y-53875001D01*
X95240000Y-52700000D02*
X96415001Y-53875001D01*
X96415001Y-56415001D02*
X114064999Y-56415001D01*
X114064999Y-56415001D02*
X115240000Y-55240000D01*
X95240000Y-55240000D02*
X96415001Y-56415001D01*
X114064999Y-58955001D02*
X115240000Y-57780000D01*
X96415001Y-58955001D02*
X114064999Y-58955001D01*
X95240000Y-57780000D02*
X96415001Y-58955001D01*
X114064999Y-61495001D02*
X115240000Y-60320000D01*
X96415001Y-61495001D02*
X114064999Y-61495001D01*
X95240000Y-60320000D02*
X96415001Y-61495001D01*
X96415001Y-64035001D02*
X114064999Y-64035001D01*
X114064999Y-64035001D02*
X115240000Y-62860000D01*
X95240000Y-62860000D02*
X96415001Y-64035001D01*
X114064999Y-66575001D02*
X115240000Y-65400000D01*
X96415001Y-66575001D02*
X114064999Y-66575001D01*
X95240000Y-65400000D02*
X96415001Y-66575001D01*
X114064999Y-69115001D02*
X115240000Y-67940000D01*
X96415001Y-69115001D02*
X114064999Y-69115001D01*
X95240000Y-67940000D02*
X96415001Y-69115001D01*
X114064999Y-71655001D02*
X115240000Y-70480000D01*
X96415001Y-71655001D02*
X114064999Y-71655001D01*
X95240000Y-70480000D02*
X96415001Y-71655001D01*
X114064999Y-74195001D02*
X115240000Y-73020000D01*
X96415001Y-74195001D02*
X114064999Y-74195001D01*
X95240000Y-73020000D02*
X96415001Y-74195001D01*
X114064999Y-76735001D02*
X115240000Y-75560000D01*
X96415001Y-76735001D02*
X114064999Y-76735001D01*
X95240000Y-75560000D02*
X96415001Y-76735001D01*
X113875001Y-79464999D02*
X115240000Y-78100000D01*
X96604999Y-79464999D02*
X113875001Y-79464999D01*
X95240000Y-78100000D02*
X96604999Y-79464999D01*
X113875001Y-82004999D02*
X115240000Y-80640000D01*
X96604999Y-82004999D02*
X113875001Y-82004999D01*
X95240000Y-80640000D02*
X96604999Y-82004999D01*
X114064999Y-84355001D02*
X115240000Y-83180000D01*
X96415001Y-84355001D02*
X114064999Y-84355001D01*
X95240000Y-83180000D02*
X96415001Y-84355001D01*
X113875001Y-87084999D02*
X115240000Y-85720000D01*
X96604999Y-87084999D02*
X113875001Y-87084999D01*
X95240000Y-85720000D02*
X96604999Y-87084999D01*
X114064999Y-89435001D02*
X115240000Y-88260000D01*
X96415001Y-89435001D02*
X114064999Y-89435001D01*
X95240000Y-88260000D02*
X96415001Y-89435001D01*
M02*
