G04 #@! TF.GenerationSoftware,KiCad,Pcbnew,(5.1.10)-1*
G04 #@! TF.CreationDate,2022-12-28T22:20:52-05:00*
G04 #@! TF.ProjectId,CocoDvRelocator,436f636f-4476-4526-956c-6f6361746f72,rev?*
G04 #@! TF.SameCoordinates,Original*
G04 #@! TF.FileFunction,Legend,Top*
G04 #@! TF.FilePolarity,Positive*
%FSLAX46Y46*%
G04 Gerber Fmt 4.6, Leading zero omitted, Abs format (unit mm)*
G04 Created by KiCad (PCBNEW (5.1.10)-1) date 2022-12-28 22:20:52*
%MOMM*%
%LPD*%
G01*
G04 APERTURE LIST*
%ADD10C,0.300000*%
%ADD11C,0.120000*%
%ADD12C,0.150000*%
G04 APERTURE END LIST*
D10*
X107535714Y-84821428D02*
X107607142Y-84892857D01*
X107678571Y-85107142D01*
X107678571Y-85250000D01*
X107607142Y-85464285D01*
X107464285Y-85607142D01*
X107321428Y-85678571D01*
X107035714Y-85750000D01*
X106821428Y-85750000D01*
X106535714Y-85678571D01*
X106392857Y-85607142D01*
X106250000Y-85464285D01*
X106178571Y-85250000D01*
X106178571Y-85107142D01*
X106250000Y-84892857D01*
X106321428Y-84821428D01*
X107678571Y-83964285D02*
X107607142Y-84107142D01*
X107535714Y-84178571D01*
X107392857Y-84250000D01*
X106964285Y-84250000D01*
X106821428Y-84178571D01*
X106750000Y-84107142D01*
X106678571Y-83964285D01*
X106678571Y-83750000D01*
X106750000Y-83607142D01*
X106821428Y-83535714D01*
X106964285Y-83464285D01*
X107392857Y-83464285D01*
X107535714Y-83535714D01*
X107607142Y-83607142D01*
X107678571Y-83750000D01*
X107678571Y-83964285D01*
X107607142Y-82178571D02*
X107678571Y-82321428D01*
X107678571Y-82607142D01*
X107607142Y-82750000D01*
X107535714Y-82821428D01*
X107392857Y-82892857D01*
X106964285Y-82892857D01*
X106821428Y-82821428D01*
X106750000Y-82750000D01*
X106678571Y-82607142D01*
X106678571Y-82321428D01*
X106750000Y-82178571D01*
X107678571Y-81321428D02*
X107607142Y-81464285D01*
X107535714Y-81535714D01*
X107392857Y-81607142D01*
X106964285Y-81607142D01*
X106821428Y-81535714D01*
X106750000Y-81464285D01*
X106678571Y-81321428D01*
X106678571Y-81107142D01*
X106750000Y-80964285D01*
X106821428Y-80892857D01*
X106964285Y-80821428D01*
X107392857Y-80821428D01*
X107535714Y-80892857D01*
X107607142Y-80964285D01*
X107678571Y-81107142D01*
X107678571Y-81321428D01*
X107678571Y-80178571D02*
X106178571Y-80178571D01*
X106178571Y-79821428D01*
X106250000Y-79607142D01*
X106392857Y-79464285D01*
X106535714Y-79392857D01*
X106821428Y-79321428D01*
X107035714Y-79321428D01*
X107321428Y-79392857D01*
X107464285Y-79464285D01*
X107607142Y-79607142D01*
X107678571Y-79821428D01*
X107678571Y-80178571D01*
X106178571Y-78892857D02*
X107678571Y-78392857D01*
X106178571Y-77892857D01*
X106892857Y-75750000D02*
X106964285Y-75535714D01*
X107035714Y-75464285D01*
X107178571Y-75392857D01*
X107392857Y-75392857D01*
X107535714Y-75464285D01*
X107607142Y-75535714D01*
X107678571Y-75678571D01*
X107678571Y-76250000D01*
X106178571Y-76250000D01*
X106178571Y-75750000D01*
X106250000Y-75607142D01*
X106321428Y-75535714D01*
X106464285Y-75464285D01*
X106607142Y-75464285D01*
X106750000Y-75535714D01*
X106821428Y-75607142D01*
X106892857Y-75750000D01*
X106892857Y-76250000D01*
X107678571Y-74535714D02*
X107607142Y-74678571D01*
X107535714Y-74750000D01*
X107392857Y-74821428D01*
X106964285Y-74821428D01*
X106821428Y-74750000D01*
X106750000Y-74678571D01*
X106678571Y-74535714D01*
X106678571Y-74321428D01*
X106750000Y-74178571D01*
X106821428Y-74107142D01*
X106964285Y-74035714D01*
X107392857Y-74035714D01*
X107535714Y-74107142D01*
X107607142Y-74178571D01*
X107678571Y-74321428D01*
X107678571Y-74535714D01*
X107678571Y-72750000D02*
X106892857Y-72750000D01*
X106750000Y-72821428D01*
X106678571Y-72964285D01*
X106678571Y-73250000D01*
X106750000Y-73392857D01*
X107607142Y-72750000D02*
X107678571Y-72892857D01*
X107678571Y-73250000D01*
X107607142Y-73392857D01*
X107464285Y-73464285D01*
X107321428Y-73464285D01*
X107178571Y-73392857D01*
X107107142Y-73250000D01*
X107107142Y-72892857D01*
X107035714Y-72750000D01*
X107678571Y-72035714D02*
X106678571Y-72035714D01*
X106964285Y-72035714D02*
X106821428Y-71964285D01*
X106750000Y-71892857D01*
X106678571Y-71750000D01*
X106678571Y-71607142D01*
X107678571Y-70464285D02*
X106178571Y-70464285D01*
X107607142Y-70464285D02*
X107678571Y-70607142D01*
X107678571Y-70892857D01*
X107607142Y-71035714D01*
X107535714Y-71107142D01*
X107392857Y-71178571D01*
X106964285Y-71178571D01*
X106821428Y-71107142D01*
X106750000Y-71035714D01*
X106678571Y-70892857D01*
X106678571Y-70607142D01*
X106750000Y-70464285D01*
X107678571Y-67750000D02*
X106964285Y-68250000D01*
X107678571Y-68607142D02*
X106178571Y-68607142D01*
X106178571Y-68035714D01*
X106250000Y-67892857D01*
X106321428Y-67821428D01*
X106464285Y-67750000D01*
X106678571Y-67750000D01*
X106821428Y-67821428D01*
X106892857Y-67892857D01*
X106964285Y-68035714D01*
X106964285Y-68607142D01*
X107607142Y-66535714D02*
X107678571Y-66678571D01*
X107678571Y-66964285D01*
X107607142Y-67107142D01*
X107464285Y-67178571D01*
X106892857Y-67178571D01*
X106750000Y-67107142D01*
X106678571Y-66964285D01*
X106678571Y-66678571D01*
X106750000Y-66535714D01*
X106892857Y-66464285D01*
X107035714Y-66464285D01*
X107178571Y-67178571D01*
X107678571Y-65607142D02*
X107607142Y-65750000D01*
X107464285Y-65821428D01*
X106178571Y-65821428D01*
X107678571Y-64821428D02*
X107607142Y-64964285D01*
X107535714Y-65035714D01*
X107392857Y-65107142D01*
X106964285Y-65107142D01*
X106821428Y-65035714D01*
X106750000Y-64964285D01*
X106678571Y-64821428D01*
X106678571Y-64607142D01*
X106750000Y-64464285D01*
X106821428Y-64392857D01*
X106964285Y-64321428D01*
X107392857Y-64321428D01*
X107535714Y-64392857D01*
X107607142Y-64464285D01*
X107678571Y-64607142D01*
X107678571Y-64821428D01*
X107607142Y-63035714D02*
X107678571Y-63178571D01*
X107678571Y-63464285D01*
X107607142Y-63607142D01*
X107535714Y-63678571D01*
X107392857Y-63750000D01*
X106964285Y-63750000D01*
X106821428Y-63678571D01*
X106750000Y-63607142D01*
X106678571Y-63464285D01*
X106678571Y-63178571D01*
X106750000Y-63035714D01*
X107678571Y-61750000D02*
X106892857Y-61750000D01*
X106750000Y-61821428D01*
X106678571Y-61964285D01*
X106678571Y-62250000D01*
X106750000Y-62392857D01*
X107607142Y-61750000D02*
X107678571Y-61892857D01*
X107678571Y-62250000D01*
X107607142Y-62392857D01*
X107464285Y-62464285D01*
X107321428Y-62464285D01*
X107178571Y-62392857D01*
X107107142Y-62250000D01*
X107107142Y-61892857D01*
X107035714Y-61750000D01*
X106678571Y-61250000D02*
X106678571Y-60678571D01*
X106178571Y-61035714D02*
X107464285Y-61035714D01*
X107607142Y-60964285D01*
X107678571Y-60821428D01*
X107678571Y-60678571D01*
X107607142Y-59607142D02*
X107678571Y-59750000D01*
X107678571Y-60035714D01*
X107607142Y-60178571D01*
X107464285Y-60250000D01*
X106892857Y-60250000D01*
X106750000Y-60178571D01*
X106678571Y-60035714D01*
X106678571Y-59750000D01*
X106750000Y-59607142D01*
X106892857Y-59535714D01*
X107035714Y-59535714D01*
X107178571Y-60250000D01*
X107678571Y-58892857D02*
X106678571Y-58892857D01*
X106964285Y-58892857D02*
X106821428Y-58821428D01*
X106750000Y-58750000D01*
X106678571Y-58607142D01*
X106678571Y-58464285D01*
X106678571Y-57035714D02*
X106678571Y-56464285D01*
X107678571Y-56821428D02*
X106392857Y-56821428D01*
X106250000Y-56750000D01*
X106178571Y-56607142D01*
X106178571Y-56464285D01*
X107678571Y-55750000D02*
X107607142Y-55892857D01*
X107535714Y-55964285D01*
X107392857Y-56035714D01*
X106964285Y-56035714D01*
X106821428Y-55964285D01*
X106750000Y-55892857D01*
X106678571Y-55750000D01*
X106678571Y-55535714D01*
X106750000Y-55392857D01*
X106821428Y-55321428D01*
X106964285Y-55250000D01*
X107392857Y-55250000D01*
X107535714Y-55321428D01*
X107607142Y-55392857D01*
X107678571Y-55535714D01*
X107678571Y-55750000D01*
X107678571Y-54607142D02*
X106678571Y-54607142D01*
X106964285Y-54607142D02*
X106821428Y-54535714D01*
X106750000Y-54464285D01*
X106678571Y-54321428D01*
X106678571Y-54178571D01*
X106678571Y-52750000D02*
X106678571Y-52178571D01*
X106178571Y-52535714D02*
X107464285Y-52535714D01*
X107607142Y-52464285D01*
X107678571Y-52321428D01*
X107678571Y-52178571D01*
X107678571Y-51678571D02*
X106178571Y-51678571D01*
X107678571Y-51035714D02*
X106892857Y-51035714D01*
X106750000Y-51107142D01*
X106678571Y-51250000D01*
X106678571Y-51464285D01*
X106750000Y-51607142D01*
X106821428Y-51678571D01*
X107607142Y-49750000D02*
X107678571Y-49892857D01*
X107678571Y-50178571D01*
X107607142Y-50321428D01*
X107464285Y-50392857D01*
X106892857Y-50392857D01*
X106750000Y-50321428D01*
X106678571Y-50178571D01*
X106678571Y-49892857D01*
X106750000Y-49750000D01*
X106892857Y-49678571D01*
X107035714Y-49678571D01*
X107178571Y-50392857D01*
X107535714Y-47035714D02*
X107607142Y-47107142D01*
X107678571Y-47321428D01*
X107678571Y-47464285D01*
X107607142Y-47678571D01*
X107464285Y-47821428D01*
X107321428Y-47892857D01*
X107035714Y-47964285D01*
X106821428Y-47964285D01*
X106535714Y-47892857D01*
X106392857Y-47821428D01*
X106250000Y-47678571D01*
X106178571Y-47464285D01*
X106178571Y-47321428D01*
X106250000Y-47107142D01*
X106321428Y-47035714D01*
X107678571Y-46178571D02*
X107607142Y-46321428D01*
X107535714Y-46392857D01*
X107392857Y-46464285D01*
X106964285Y-46464285D01*
X106821428Y-46392857D01*
X106750000Y-46321428D01*
X106678571Y-46178571D01*
X106678571Y-45964285D01*
X106750000Y-45821428D01*
X106821428Y-45750000D01*
X106964285Y-45678571D01*
X107392857Y-45678571D01*
X107535714Y-45750000D01*
X107607142Y-45821428D01*
X107678571Y-45964285D01*
X107678571Y-46178571D01*
X107535714Y-44178571D02*
X107607142Y-44250000D01*
X107678571Y-44464285D01*
X107678571Y-44607142D01*
X107607142Y-44821428D01*
X107464285Y-44964285D01*
X107321428Y-45035714D01*
X107035714Y-45107142D01*
X106821428Y-45107142D01*
X106535714Y-45035714D01*
X106392857Y-44964285D01*
X106250000Y-44821428D01*
X106178571Y-44607142D01*
X106178571Y-44464285D01*
X106250000Y-44250000D01*
X106321428Y-44178571D01*
X107678571Y-43321428D02*
X107607142Y-43464285D01*
X107535714Y-43535714D01*
X107392857Y-43607142D01*
X106964285Y-43607142D01*
X106821428Y-43535714D01*
X106750000Y-43464285D01*
X106678571Y-43321428D01*
X106678571Y-43107142D01*
X106750000Y-42964285D01*
X106821428Y-42892857D01*
X106964285Y-42821428D01*
X107392857Y-42821428D01*
X107535714Y-42892857D01*
X107607142Y-42964285D01*
X107678571Y-43107142D01*
X107678571Y-43321428D01*
X107678571Y-40250000D02*
X107678571Y-41107142D01*
X107678571Y-40678571D02*
X106178571Y-40678571D01*
X106392857Y-40821428D01*
X106535714Y-40964285D01*
X106607142Y-41107142D01*
D11*
X78603000Y-89657000D02*
X96637000Y-89657000D01*
X96637000Y-89657000D02*
X96637000Y-38603000D01*
X96637000Y-38603000D02*
X78603000Y-38603000D01*
X78603000Y-38603000D02*
X78603000Y-89657000D01*
D12*
X87286666Y-63582380D02*
X87286666Y-64296666D01*
X87239047Y-64439523D01*
X87143809Y-64534761D01*
X87000952Y-64582380D01*
X86905714Y-64582380D01*
X88286666Y-64582380D02*
X87715238Y-64582380D01*
X88000952Y-64582380D02*
X88000952Y-63582380D01*
X87905714Y-63725238D01*
X87810476Y-63820476D01*
X87715238Y-63868095D01*
X80000000Y-37991880D02*
X80000000Y-38229976D01*
X79761904Y-38134738D02*
X80000000Y-38229976D01*
X80238095Y-38134738D01*
X79857142Y-38420452D02*
X80000000Y-38229976D01*
X80142857Y-38420452D01*
X80000000Y-37991880D02*
X80000000Y-38229976D01*
X79761904Y-38134738D02*
X80000000Y-38229976D01*
X80238095Y-38134738D01*
X79857142Y-38420452D02*
X80000000Y-38229976D01*
X80142857Y-38420452D01*
M02*
