G04 #@! TF.GenerationSoftware,KiCad,Pcbnew,(5.1.10)-1*
G04 #@! TF.CreationDate,2022-12-28T22:20:52-05:00*
G04 #@! TF.ProjectId,CocoDvRelocator,436f636f-4476-4526-956c-6f6361746f72,rev?*
G04 #@! TF.SameCoordinates,Original*
G04 #@! TF.FileFunction,Legend,Bot*
G04 #@! TF.FilePolarity,Positive*
%FSLAX46Y46*%
G04 Gerber Fmt 4.6, Leading zero omitted, Abs format (unit mm)*
G04 Created by KiCad (PCBNEW (5.1.10)-1) date 2022-12-28 22:20:52*
%MOMM*%
%LPD*%
G01*
G04 APERTURE LIST*
%ADD10C,0.120000*%
%ADD11C,0.150000*%
G04 APERTURE END LIST*
D10*
X116570000Y-89590000D02*
X113910000Y-89590000D01*
X116570000Y-41270000D02*
X116570000Y-89590000D01*
X113910000Y-41270000D02*
X113910000Y-89590000D01*
X116570000Y-41270000D02*
X113910000Y-41270000D01*
X116570000Y-40000000D02*
X116570000Y-38670000D01*
X116570000Y-38670000D02*
X115240000Y-38670000D01*
X101330000Y-89590000D02*
X98670000Y-89590000D01*
X101330000Y-41270000D02*
X101330000Y-89590000D01*
X98670000Y-41270000D02*
X98670000Y-89590000D01*
X101330000Y-41270000D02*
X98670000Y-41270000D01*
X101330000Y-40000000D02*
X101330000Y-38670000D01*
X101330000Y-38670000D02*
X100000000Y-38670000D01*
D11*
X115573333Y-37122380D02*
X115573333Y-37836666D01*
X115620952Y-37979523D01*
X115716190Y-38074761D01*
X115859047Y-38122380D01*
X115954285Y-38122380D01*
X115192380Y-37122380D02*
X114573333Y-37122380D01*
X114906666Y-37503333D01*
X114763809Y-37503333D01*
X114668571Y-37550952D01*
X114620952Y-37598571D01*
X114573333Y-37693809D01*
X114573333Y-37931904D01*
X114620952Y-38027142D01*
X114668571Y-38074761D01*
X114763809Y-38122380D01*
X115049523Y-38122380D01*
X115144761Y-38074761D01*
X115192380Y-38027142D01*
X100333333Y-37122380D02*
X100333333Y-37836666D01*
X100380952Y-37979523D01*
X100476190Y-38074761D01*
X100619047Y-38122380D01*
X100714285Y-38122380D01*
X99904761Y-37217619D02*
X99857142Y-37170000D01*
X99761904Y-37122380D01*
X99523809Y-37122380D01*
X99428571Y-37170000D01*
X99380952Y-37217619D01*
X99333333Y-37312857D01*
X99333333Y-37408095D01*
X99380952Y-37550952D01*
X99952380Y-38122380D01*
X99333333Y-38122380D01*
M02*
